<svg width="208" height="27" viewBox="0 0 208 27" fill="none" xmlns="http://www.w3.org/2000/svg">
<g clip-path="url(#clip0_258_10692)">
<path d="M45.0229 13.091C45.022 13.9635 44.9323 14.8336 44.7551 15.6878C44.476 17.0307 43.981 18.3194 43.2894 19.5037C43.2189 19.6235 43.1484 19.7433 43.0709 19.8561C41.9277 21.6895 40.3364 23.2015 38.4469 24.2495C36.5574 25.2975 34.4322 25.8469 32.2715 25.8459H12.7445C11.07 25.8459 9.41187 25.5161 7.8648 24.8753C6.31773 24.2345 4.91203 23.2952 3.72796 22.1111C2.54388 20.9271 1.60462 19.5214 0.963807 17.9743C0.322991 16.4272 -0.00683594 14.7691 -0.00683594 13.0946C-0.00683594 11.42 0.322991 9.7619 0.963807 8.21483C1.60462 6.66776 2.54388 5.26205 3.72796 4.07797C4.91203 2.8939 6.31773 1.95464 7.8648 1.31383C9.41187 0.673009 11.07 0.343187 12.7445 0.343188H19.5554V6.33306H12.7445C10.9494 6.33306 9.2278 7.04617 7.95845 8.31552C6.6891 9.58486 5.97599 11.3065 5.97599 13.1016C5.97599 14.8967 6.6891 16.6183 7.95845 17.8877C9.2278 19.157 10.9494 19.8702 12.7445 19.8702H32.268C33.7325 19.8702 35.1574 19.3948 36.3285 18.5154C37.4995 17.636 38.3534 16.4001 38.7617 14.9937C39.069 13.9279 39.1125 12.8033 38.8886 11.7169C38.5713 10.1956 37.7399 8.82992 36.5342 7.84945C35.3285 6.86898 33.822 6.33351 32.268 6.33306H28.4909V16.9246H22.501V0.339661H32.2645C34.424 0.344279 36.5472 0.896082 38.4357 1.94355C40.3242 2.99101 41.9165 4.49998 43.0639 6.32953C43.2236 6.57852 43.3716 6.83221 43.5078 7.0906C44.2052 8.38935 44.6702 9.79999 44.882 11.2588C44.9734 11.8653 45.0205 12.4777 45.0229 13.091Z" fill="#0071CE"/>
<path d="M89.778 13.1089V25.825H83.7881V13.1089C83.7881 11.3137 83.075 9.59211 81.8056 8.32276C80.5363 7.05341 78.8147 6.34029 77.0195 6.34029C75.2244 6.34029 73.5028 7.05341 72.2334 8.32276C70.9641 9.59211 70.251 11.3137 70.251 13.1089V25.825H64.2611V13.1089C64.2611 11.3137 63.548 9.59211 62.2786 8.32276C61.0093 7.05341 59.2877 6.34029 57.4926 6.34029C55.6974 6.34029 53.9758 7.05341 52.7065 8.32276C51.4371 9.59211 50.724 11.3137 50.724 13.1089V25.825H44.7341V13.1089C44.7329 10.4925 45.5367 7.93907 47.0365 5.79523C48.5363 3.65139 50.6594 2.02095 53.1177 1.12521C55.5759 0.229477 58.2503 0.111837 60.7777 0.788254C63.3051 1.46467 65.5632 2.90239 67.2455 4.90626C68.9286 2.90438 71.1867 1.46849 73.7135 0.793275C76.2403 0.118056 78.9136 0.23616 81.371 1.13158C83.8284 2.02699 85.951 3.65642 87.451 5.79893C88.9511 7.94144 89.7561 10.4934 89.7568 13.1089H89.778Z" fill="#0071CE"/>
<path d="M44.8485 5.37468L37.1125 13.1107L44.8485 20.8466L52.5845 13.1107L44.8485 5.37468Z" fill="#E7004C"/>
<path d="M103.884 12.2137H101.868V13.8733H103.884V12.2137Z" fill="black"/>
<path d="M106.861 9.19059H99.212C98.9714 9.20004 98.7314 9.15925 98.5073 9.07079C98.3313 8.9954 98.1791 8.87362 98.0669 8.71845C97.9542 8.54524 97.8775 8.35112 97.8414 8.14765C97.7968 7.89766 97.7755 7.64405 97.778 7.39011V6.63609H96.0022V7.58742C95.9937 8.08019 96.0627 8.57124 96.2065 9.04261C96.324 9.42206 96.5237 9.77093 96.7914 10.0644C97.0361 10.332 97.3403 10.5384 97.6793 10.6669C98.0367 10.8043 98.4169 10.8725 98.7998 10.8678H108.877V4.81799H106.861V9.19059Z" fill="black"/>
<path d="M125.138 0.716675H123.123V2.37622H125.138V0.716675Z" fill="black"/>
<path d="M146.524 9.19057H141.908C141.748 9.19197 141.589 9.17542 141.432 9.14125C141.284 9.11353 141.142 9.05858 141.013 8.97918C140.89 8.90386 140.785 8.80145 140.707 8.67968C140.622 8.54377 140.58 8.38529 140.587 8.22515V7.83053C140.598 7.30247 140.498 6.77791 140.294 6.29078C140.116 5.87063 139.845 5.4961 139.502 5.19498C139.153 4.90113 138.749 4.67955 138.314 4.54314C137.352 4.2472 136.323 4.2472 135.361 4.54314C134.927 4.67884 134.525 4.90051 134.178 5.19498C133.832 5.49498 133.56 5.86974 133.381 6.29078C133.178 6.7782 133.08 7.30273 133.092 7.83053V8.22515C133.098 8.38565 133.055 8.54416 132.969 8.67968C132.892 8.80129 132.789 8.90373 132.666 8.97918C132.535 9.05866 132.39 9.11358 132.24 9.14125C132.086 9.17454 131.929 9.19108 131.771 9.19057H128.801H128.212C127.99 9.19057 127.768 9.19057 127.553 9.19057H127.057V9.12011C127.378 8.84561 127.634 8.5038 127.809 8.11896C127.983 7.73411 128.07 7.31566 128.064 6.89329C128.074 6.49227 128.003 6.09342 127.857 5.71998C127.734 5.41417 127.539 5.1423 127.289 4.92721C127.032 4.71506 126.731 4.56226 126.408 4.47972C126.041 4.38222 125.661 4.33482 125.281 4.33878H119.506V4.59247C119.79 4.88004 120.019 5.2167 120.182 5.58609C120.376 6.00186 120.559 6.43524 120.736 6.87919C120.912 7.32314 121.088 7.74948 121.275 8.15468C121.425 8.51196 121.639 8.83906 121.905 9.12011V9.17649H115.88C115.704 9.176 115.529 9.16187 115.355 9.13421C115.183 9.10858 115.017 9.05124 114.866 8.96508C114.72 8.88009 114.598 8.75869 114.513 8.61273C114.414 8.43049 114.366 8.22457 114.376 8.01727V4.8074H112.346V10.6281C112.374 11.1674 112.293 11.7068 112.107 12.2137C112.035 12.3774 111.915 12.5149 111.762 12.6076C111.61 12.7004 111.432 12.7437 111.254 12.7317C111.106 12.7316 110.959 12.7198 110.814 12.6964C110.681 12.6722 110.555 12.6206 110.444 12.5449V14.0071C110.638 14.0885 110.841 14.1464 111.05 14.1798C111.267 14.2176 111.488 14.2365 111.709 14.2362C112.149 14.2516 112.586 14.1609 112.984 13.9719C113.318 13.805 113.601 13.5505 113.801 13.2355C114.018 12.8872 114.168 12.5011 114.242 12.0974C114.337 11.6135 114.382 11.1212 114.376 10.6281V9.96221H114.432C114.489 10.1019 114.572 10.2297 114.675 10.3392C114.778 10.4482 114.897 10.5409 115.028 10.6141C115.162 10.6906 115.305 10.7509 115.454 10.7938C115.589 10.8344 115.729 10.8558 115.87 10.8572H131.859C132.23 10.8565 132.595 10.7581 132.916 10.5718C133.221 10.4073 133.477 10.1639 133.656 9.86708C133.982 10.3417 134.44 10.7094 134.974 10.9241C136.163 11.3798 137.478 11.3798 138.666 10.9241C139.202 10.7106 139.662 10.3427 139.988 9.86708C140.164 10.1647 140.419 10.4084 140.724 10.5718C141.045 10.7581 141.41 10.8565 141.781 10.8572H148.539V0.716675H146.524V9.19057ZM125.912 7.64378C125.825 7.92307 125.699 8.18875 125.538 8.43303C125.38 8.66878 125.179 8.87308 124.946 9.03554C124.721 9.19527 124.451 9.2803 124.174 9.27866C123.984 9.2778 123.801 9.20333 123.664 9.07078C123.5 8.92008 123.363 8.74254 123.258 8.54579C123.133 8.31961 123.026 8.08399 122.938 7.8411C122.843 7.58388 122.751 7.33371 122.663 7.08707C122.575 6.84043 122.483 6.61846 122.399 6.4141C122.337 6.24684 122.241 6.09438 122.117 5.96662H124.897C125.181 5.95916 125.462 6.03245 125.707 6.17803C125.821 6.24759 125.913 6.34649 125.975 6.46432C126.037 6.58214 126.066 6.71451 126.06 6.84748C126.052 7.11903 126.002 7.38775 125.912 7.64378ZM138.378 8.55988C138.314 8.77889 138.209 8.98351 138.067 9.16239C137.93 9.33393 137.755 9.47239 137.557 9.56759C137.336 9.66989 137.095 9.72164 136.852 9.71909C136.609 9.72249 136.368 9.67069 136.147 9.56759C135.948 9.47333 135.773 9.33472 135.636 9.16239C135.494 8.9838 135.387 8.77916 135.323 8.55988C135.182 8.07306 135.182 7.55628 135.323 7.06946C135.388 6.84851 135.495 6.64177 135.636 6.4599C135.772 6.28418 135.947 6.14294 136.147 6.04766C136.368 5.94577 136.609 5.89517 136.852 5.89967C137.095 5.89601 137.336 5.94657 137.557 6.04766C137.756 6.14426 137.931 6.28527 138.067 6.4599C138.208 6.64196 138.313 6.84871 138.378 7.06946C138.518 7.55628 138.518 8.07306 138.378 8.55988Z" fill="black"/>
<path d="M152.828 0.716675H150.813V10.8677H152.828V0.716675Z" fill="black"/>
<path d="M170.997 0.716675H168.982V2.37622H170.997V0.716675Z" fill="black"/>
<path d="M172.509 4.76177C172.165 4.46346 171.761 4.24132 171.325 4.10993C170.846 3.96557 170.349 3.8943 169.849 3.89852C169.35 3.89318 168.854 3.96936 168.379 4.12402C167.947 4.26653 167.548 4.49548 167.206 4.79699C166.871 5.10071 166.607 5.47497 166.434 5.89279C166.24 6.36753 166.145 6.87728 166.156 7.39026C166.157 7.72848 166.238 8.06167 166.392 8.36274C166.528 8.6534 166.718 8.91534 166.952 9.13437V9.19074H161.857C161.617 9.20051 161.377 9.1597 161.153 9.07094C160.977 8.99555 160.825 8.87377 160.712 8.7186C160.598 8.54618 160.521 8.35173 160.487 8.1478C160.442 7.89781 160.421 7.6442 160.423 7.39026V6.63623H158.634V7.58757C158.625 8.08034 158.694 8.57139 158.838 9.04276C158.955 9.42221 159.155 9.77108 159.423 10.0646C159.667 10.3313 159.97 10.5376 160.307 10.6671C160.666 10.8041 161.047 10.8723 161.431 10.8679H169.835C170.335 10.8727 170.833 10.8003 171.311 10.653C171.746 10.5226 172.149 10.303 172.495 10.0082C172.839 9.71146 173.111 9.34038 173.291 8.92296C173.681 7.93839 173.681 6.84213 173.291 5.85756C173.114 5.43941 172.847 5.06533 172.509 4.76177ZM171.388 8.11609C171.323 8.33379 171.216 8.53706 171.075 8.71508C170.937 8.88534 170.762 9.02257 170.564 9.11675C170.344 9.22141 170.103 9.27329 169.859 9.26825C169.626 9.28453 169.393 9.24545 169.178 9.1542C168.963 9.06296 168.773 8.92214 168.623 8.74326C168.335 8.34836 168.191 7.86745 168.214 7.37969C168.212 7.12685 168.248 6.87515 168.319 6.63272C168.384 6.41197 168.489 6.20522 168.63 6.02316C168.766 5.84853 168.941 5.70752 169.14 5.61092C169.361 5.50983 169.602 5.45927 169.845 5.46293C170.088 5.45843 170.329 5.50903 170.55 5.61092C170.75 5.7062 170.925 5.84744 171.061 6.02316C171.202 6.20503 171.309 6.41177 171.374 6.63272C171.446 6.87515 171.482 7.12685 171.48 7.37969C171.487 7.62837 171.456 7.87665 171.388 8.11609Z" fill="black"/>
<path d="M207.651 5.85756C207.469 5.43807 207.197 5.06388 206.854 4.76177C206.51 4.46346 206.107 4.24132 205.67 4.10993C205.192 3.96557 204.694 3.8943 204.194 3.89852C203.695 3.89318 203.199 3.96936 202.725 4.12402C202.293 4.26578 201.895 4.49484 201.555 4.79699C201.219 5.10059 200.954 5.4748 200.78 5.89279C200.587 6.36803 200.492 6.87743 200.501 7.39026C200.504 7.72827 200.585 8.06108 200.738 8.36274C200.873 8.6534 201.063 8.91534 201.298 9.13437V9.19074H197.151C196.973 9.19113 196.797 9.16743 196.626 9.12028C196.451 9.0766 196.285 9.00267 196.136 8.90182C195.988 8.79951 195.867 8.66289 195.784 8.50367C195.689 8.3123 195.643 8.10049 195.65 7.88707V7.39026C195.663 6.88706 195.556 6.38793 195.336 5.93507C195.137 5.54312 194.847 5.20474 194.49 4.94851C194.116 4.68115 193.692 4.49073 193.243 4.38828C192.744 4.26602 192.231 4.20567 191.718 4.20858C191.191 4.20775 190.669 4.30452 190.178 4.49398C189.679 4.68459 189.205 4.9367 188.768 5.24448C188.326 5.55971 187.912 5.91343 187.532 6.30151C187.157 6.67326 186.804 7.06618 186.475 7.47835H186.45V5.21981H184.519V9.19427H180.312C180.136 9.19378 179.961 9.17965 179.787 9.15199C179.615 9.12636 179.449 9.06901 179.297 8.98286C179.152 8.89762 179.03 8.77627 178.945 8.63051C178.849 8.44731 178.802 8.24187 178.811 8.03505V4.82519H176.782V10.6459C176.811 11.1856 176.728 11.7254 176.538 12.2315C176.468 12.3952 176.349 12.5329 176.196 12.6257C176.044 12.7185 175.867 12.7617 175.689 12.7494C175.542 12.7495 175.395 12.7377 175.249 12.7142C175.116 12.6906 174.99 12.6389 174.879 12.5627V14.0249C175.072 14.1058 175.275 14.1637 175.481 14.1976C175.699 14.2353 175.919 14.2541 176.14 14.254C176.582 14.2694 177.02 14.1787 177.419 13.9897C177.753 13.8228 178.036 13.5683 178.237 13.2533C178.451 12.9035 178.6 12.518 178.677 12.1152C178.77 11.6311 178.815 11.1389 178.811 10.6459V9.98H178.867C178.923 10.1203 179.006 10.2484 179.111 10.357C179.213 10.4668 179.332 10.5596 179.463 10.6318C179.598 10.7078 179.741 10.768 179.889 10.8115C180.025 10.852 180.167 10.8733 180.309 10.8749H195.287C195.386 10.7316 195.462 10.5735 195.512 10.4063C195.56 10.2668 195.599 10.1244 195.629 9.98H195.685C195.74 10.1212 195.824 10.2495 195.932 10.357C196.041 10.4662 196.165 10.5588 196.302 10.6318C196.436 10.7084 196.579 10.7687 196.728 10.8115C196.864 10.8522 197.005 10.8736 197.147 10.8749H204.194C204.694 10.8798 205.192 10.8073 205.67 10.66C206.105 10.5297 206.509 10.3101 206.854 10.0152C207.198 9.71852 207.471 9.34742 207.651 8.93001C208.041 7.94543 208.041 6.84917 207.651 5.8646V5.85756ZM193.631 9.19074H186.957C186.957 9.1555 187.049 9.0498 187.176 8.87363C187.303 8.69746 187.475 8.48605 187.69 8.24293C187.905 7.99981 188.148 7.73556 188.434 7.46073C188.725 7.1797 189.038 6.92281 189.371 6.69261C189.711 6.45703 190.078 6.26192 190.463 6.11124C190.848 5.96099 191.258 5.8845 191.672 5.88575C192.17 5.86085 192.666 5.97295 193.106 6.2099C193.458 6.42835 193.631 6.83708 193.631 7.43254V9.19074ZM205.734 8.1337C205.668 8.35062 205.563 8.55363 205.424 8.73269C205.284 8.90303 205.108 9.04023 204.909 9.13437C204.689 9.23904 204.448 9.29092 204.205 9.28588C203.972 9.30215 203.738 9.26307 203.523 9.17182C203.308 9.08058 203.118 8.93975 202.968 8.76088C202.682 8.3651 202.539 7.88482 202.559 7.3973C202.557 7.14447 202.593 6.89276 202.665 6.65033C202.731 6.42938 202.837 6.22265 202.978 6.04077C203.114 5.86506 203.289 5.72382 203.489 5.62853C203.715 5.53099 203.959 5.48068 204.205 5.48068C204.451 5.48068 204.694 5.53099 204.92 5.62853C205.121 5.72414 205.297 5.86527 205.434 6.04077C205.573 6.22369 205.678 6.43017 205.744 6.65033C205.816 6.89276 205.852 7.14447 205.85 7.3973C205.847 7.64133 205.808 7.88357 205.734 8.11609V8.1337Z" fill="black"/>
<path d="M96.0022 22.2836V22.2625C95.992 21.7483 96.0862 21.2374 96.2792 20.7607C96.4721 20.284 96.7598 19.8514 97.1248 19.4891C97.4897 19.1268 97.9244 18.8422 98.4025 18.6528C98.8806 18.4633 99.3921 18.3727 99.9062 18.3867C100.451 18.3603 100.996 18.4493 101.504 18.6479C102.012 18.8464 102.473 19.15 102.855 19.5388L101.798 20.7474C101.295 20.2278 100.608 19.9256 99.8851 19.9053C98.6237 19.9053 97.7146 20.9623 97.7146 22.2343V22.2554C97.7146 23.538 98.6025 24.6091 99.8851 24.6091C100.741 24.6091 101.263 24.2567 101.851 23.7317L102.908 24.7888C102.531 25.2287 102.059 25.5774 101.527 25.8087C100.995 26.04 100.418 26.1478 99.8393 26.1242C99.333 26.1318 98.8303 26.0376 98.3611 25.8473C97.8919 25.6569 97.4657 25.3742 97.1078 25.016C96.75 24.6578 96.4677 24.2314 96.2778 23.762C96.0878 23.2926 95.9941 22.7899 96.0022 22.2836Z" fill="black"/>
<path d="M104.657 18.5209H108.078C108.474 18.4963 108.871 18.5509 109.245 18.6816C109.62 18.8123 109.964 19.0164 110.259 19.282C110.474 19.5096 110.642 19.7781 110.752 20.0716C110.862 20.3651 110.913 20.6776 110.9 20.9908V21.012C110.925 21.5212 110.781 22.0243 110.491 22.4439C110.201 22.8634 109.782 23.1762 109.297 23.3339L111.126 26.0047H109.198L107.595 23.6193H106.302V26.0118H104.657V18.5209ZM107.969 22.1571C108.772 22.1571 109.23 21.7308 109.23 21.1001V21.0789C109.23 20.3742 108.74 20.0219 107.937 20.0219H106.302V22.1712L107.969 22.1571Z" fill="black"/>
<path d="M112.812 18.5209H118.45V19.9866H114.454V21.5053H117.978V22.971H114.454V24.5425H118.517V26.0047H112.812V18.5209ZM116.29 16.2553L117.699 16.8649L116.248 17.9219H115.007L116.29 16.2553Z" fill="black"/>
<path d="M120.407 18.5206H123.328C125.682 18.5206 127.306 20.1343 127.306 22.2413V22.2625C127.306 24.3765 125.682 26.0044 123.328 26.0044H120.407V18.5206ZM123.328 24.5104C123.627 24.5282 123.927 24.4826 124.208 24.3767C124.488 24.2708 124.743 24.1069 124.956 23.8957C125.169 23.6846 125.334 23.4309 125.443 23.1513C125.551 22.8717 125.599 22.5724 125.583 22.273V22.2519C125.598 21.9518 125.55 21.6518 125.442 21.3713C125.334 21.0909 125.169 20.8362 124.956 20.6237C124.744 20.4112 124.489 20.2456 124.209 20.1376C123.928 20.0297 123.628 19.9817 123.328 19.9969H122.056V24.5104H123.328Z" fill="black"/>
<path d="M129.276 18.5206H130.921V26.0044H129.276V18.5206Z" fill="black"/>
<path d="M134.962 20.0392H132.686V18.5206H138.884V20.0392H136.608V26.0044H134.959L134.962 20.0392Z" fill="black"/>
<path d="M144.214 18.5206H147.131C149.485 18.5206 151.109 20.1343 151.109 22.2413V22.2625C151.109 24.3765 149.485 26.0044 147.131 26.0044H144.214V18.5206ZM147.131 24.5104C147.43 24.5281 147.73 24.4825 148.011 24.3767C148.291 24.2708 148.547 24.1069 148.76 23.8958C148.973 23.6848 149.139 23.4312 149.248 23.1516C149.356 22.8719 149.404 22.5726 149.39 22.273V22.2519C149.405 21.9515 149.357 21.6512 149.249 21.3704C149.14 21.0897 148.975 20.8349 148.762 20.6223C148.549 20.4098 148.294 20.2443 148.013 20.1365C147.732 20.0288 147.431 19.9812 147.131 19.9969H145.859V24.5104H147.131Z" fill="black"/>
<path d="M152.892 22.798V18.5206H154.537V22.7487C154.537 23.9678 155.147 24.5985 156.151 24.5985C157.155 24.5985 157.765 23.989 157.765 22.8016V18.5206H159.414V22.7487C159.414 25.0143 158.142 26.1277 156.13 26.1277C154.118 26.1277 152.892 25.0002 152.892 22.798Z" fill="black"/>
<path d="M165.157 18.5206H166.919L168.885 21.6917L170.854 18.5206H172.616V26.0044H170.981V21.1209L168.867 24.3167H168.825L166.739 21.1455V25.9973H165.125L165.157 18.5206Z" fill="black"/>
<path d="M177.429 18.468H178.948L182.158 26.0047H180.435L179.755 24.324H176.584L175.879 26.0012H174.223L177.429 18.468ZM179.163 22.8723L178.169 20.4482L177.172 22.8759L179.163 22.8723Z" fill="black"/>
<path d="M183.74 18.5211H187.154C187.55 18.496 187.947 18.5505 188.322 18.6812C188.696 18.8119 189.041 19.0162 189.335 19.2821C189.552 19.5094 189.72 19.7778 189.83 20.0713C189.94 20.3649 189.99 20.6777 189.977 20.991V21.0121C190.001 21.5214 189.857 22.0245 189.568 22.4441C189.278 22.8636 188.858 23.1763 188.374 23.3341L190.202 26.0049H188.278L186.682 23.6195H185.393V26.0119H183.747L183.74 18.5211ZM187.056 22.1573C187.859 22.1573 188.317 21.7309 188.317 21.1002V21.0791C188.317 20.3744 187.824 20.0221 187.024 20.0221H185.393V22.1714L187.056 22.1573Z" fill="black"/>
<path d="M191.572 22.2838V22.2626C191.612 21.2364 192.047 20.2655 192.787 19.5527C193.526 18.8399 194.512 18.4404 195.539 18.4377C196.566 18.435 197.555 18.8292 198.298 19.538C199.041 20.2469 199.482 21.2155 199.527 22.2415V22.2626C199.487 23.2889 199.052 24.2598 198.312 24.9726C197.573 25.6853 196.587 26.0848 195.56 26.0876C194.533 26.0903 193.544 25.696 192.801 24.9872C192.058 24.2784 191.617 23.3098 191.572 22.2838ZM197.805 22.2838V22.2626C197.815 21.9583 197.764 21.655 197.655 21.3708C197.546 21.0865 197.381 20.827 197.169 20.6078C196.958 20.3886 196.705 20.2141 196.425 20.0946C196.145 19.9752 195.843 19.9133 195.539 19.9125C195.237 19.9113 194.937 19.9713 194.659 20.089C194.38 20.2067 194.129 20.3796 193.919 20.5973C193.709 20.815 193.546 21.0729 193.438 21.3555C193.331 21.638 193.282 21.9395 193.294 22.2415V22.2626C193.284 22.5671 193.335 22.8706 193.444 23.155C193.553 23.4395 193.718 23.6992 193.929 23.9187C194.141 24.1382 194.394 24.313 194.674 24.4328C194.954 24.5527 195.255 24.6151 195.56 24.6163C195.863 24.6175 196.162 24.5574 196.441 24.4394C196.72 24.3215 196.972 24.1483 197.181 23.9303C197.391 23.7122 197.555 23.4539 197.662 23.1709C197.769 22.8879 197.817 22.5861 197.805 22.2838Z" fill="black"/>
<path d="M201.086 22.2838V22.2626C201.076 21.7486 201.171 21.2379 201.364 20.7614C201.557 20.285 201.844 19.8526 202.209 19.4904C202.574 19.1281 203.009 18.8436 203.486 18.6539C203.964 18.4643 204.476 18.3734 204.99 18.3868C205.535 18.36 206.08 18.4487 206.589 18.6473C207.098 18.8459 207.559 19.1497 207.942 19.539L206.885 20.7475C206.382 20.2274 205.695 19.9251 204.972 19.9054C203.711 19.9054 202.802 20.9625 202.802 22.2344V22.2556C202.802 23.5381 203.689 24.6092 204.972 24.6092C205.828 24.6092 206.35 24.2569 206.938 23.7319L207.995 24.7889C207.618 25.2291 207.146 25.5779 206.614 25.8092C206.083 26.0405 205.505 26.1483 204.926 26.1243C204.42 26.1324 203.917 26.0386 203.447 25.8485C202.977 25.6583 202.551 25.3757 202.193 25.0175C201.834 24.6592 201.552 24.2326 201.362 23.763C201.171 23.2934 201.078 22.7903 201.086 22.2838Z" fill="black"/>
</g>
<defs>
<clipPath id="clip0_258_10692">
<rect width="208" height="25.7917" fill="white" transform="translate(-0.00244141 0.3396)"/>
</clipPath>
</defs>
</svg>
