<svg width="16" height="16" viewBox="0 0 16 16" fill="none" xmlns="http://www.w3.org/2000/svg">
<g id="file-plus-02">
<path id="Icon" d="M13.3334 6.99998V4.53331C13.3334 3.41321 13.3334 2.85316 13.1154 2.42533C12.9237 2.04901 12.6177 1.74305 12.2414 1.5513C11.8136 1.33331 11.2535 1.33331 10.1334 1.33331H5.86675C4.74664 1.33331 4.18659 1.33331 3.75877 1.5513C3.38244 1.74305 3.07648 2.04901 2.88473 2.42533C2.66675 2.85316 2.66675 3.41321 2.66675 4.53331V11.4666C2.66675 12.5868 2.66675 13.1468 2.88473 13.5746C3.07648 13.951 3.38244 14.2569 3.75877 14.4487C4.18659 14.6666 4.74664 14.6666 5.86675 14.6666H8.00008M9.33341 7.33331H5.33341M6.66675 9.99998H5.33341M10.6667 4.66665H5.33341M12.0001 14V9.99998M10.0001 12H14.0001" stroke="currentcolor" stroke-width="1.5" stroke-linecap="round" stroke-linejoin="round"/>
</g>
</svg>
